<svg xmlns="http://www.w3.org/2000/svg" viewBox="0 0 110 24" width="110" height="24" role="img" aria-label="kensa">
  <g transform="translate(0, 18)" fill="#000000">
    <g transform="translate(0.000, 0) scale(0.018000, -0.018000)"><path d="M125 0V625H250V375H375V250H500V125H625V0H500V125H375V250H250V0ZM500 500V625H625V500ZM375 375V500H500V375Z"/></g>
    <g transform="translate(13.860, 0) scale(0.018000, -0.018000)"><path d="M125 0V625H500V500H250V375H500V250H250V125H500V0Z"/></g>
    <g transform="translate(25.470, 0) scale(0.018000, -0.018000)"><path d="M125 0V625H250V500H375V375H500V250H625V625H750V0H625V125H500V250H375V375H250V0Z"/></g>
    <g transform="translate(41.580, 0) scale(0.018000, -0.018000)"><path d="M250 500V625H625V500ZM500 125V250H250V375H125V500H250V375H500V250H625V125ZM125 0V125H500V0Z"/></g>
    <g transform="translate(55.440, 0) scale(0.018000, -0.018000)"><path d="M125 0V500H250V625H500V500H625V0H500V250H250V0ZM250 375H500V495H250Z"/></g>
  </g>
</svg>
